<svg xmlns="http://www.w3.org/2000/svg" viewBox="0 0 150.96 40.89"><defs><style>.cls-1{fill:#fff;fill-rule:evenodd;}</style></defs><g id="Capa_2" data-name="Capa 2"><g id="OBJECTS"><path class="cls-1" d="M8.05,40.08c63.65,0,100.54,0,121.11.05,15.24,0,34.47,3.29,10.41-3.84l-20.23-6c-3.48-1,1.55-28.68-24-28.88-6.46,0-13,3.83-18.55,12.25a9.39,9.39,0,0,0-4.88-1.36c-.3,0-.6,0-.9,0C69.58,6.59,66.22.52,58.38,0,46.22-.73,43.05,14,42.27,20A11.32,11.32,0,0,0,22.19,30.34L13.43,34C4.08,37.83-8.47,40.08,8.05,40.08Z"/></g></g></svg>