<svg xmlns="http://www.w3.org/2000/svg" viewBox="0 0 593.1 154.65"><defs><style>.cls-1{fill:#f50f57;}.cls-1,.cls-2,.cls-3,.cls-4{fill-rule:evenodd;}.cls-2{fill:#1a2d4d;}.cls-3{fill:#11213c;}.cls-4{fill:#00021a;}</style></defs><g id="Capa_2" data-name="Capa 2"><g id="OBJECTS"><path class="cls-1" d="M315.81,58.79a2,2,0,1,1,.15-4c.08,0,30.61,1.38,41.6-14.41,5.93-8.52,10.64-14.42,16.3-18.39s12.25-5.92,21.7-6.38a2,2,0,1,1,.19,4c-8.64.41-14.53,2.11-19.59,5.65s-9.6,9.22-15.29,17.4C348.61,60.27,315.91,58.79,315.81,58.79Z"/><path class="cls-1" d="M399,13.63a4.43,4.43,0,1,1-5.45,3.09A4.43,4.43,0,0,1,399,13.63Z"/><path class="cls-1" d="M399.44,18.24c.33-5.45,6.12-8.16,17.44-10.26,3.48,4.73,6,11.58,1.41,17.91C413.3,26.59,400.47,24.36,399.44,18.24Z"/><path class="cls-2" d="M308.69,33,404,77.32c2.53,1.17.56,2.86-4.39,3.54L332.84,90c-4.95.68-11.07.5-13.57-.73L225.85,43.16c-2.49-1.23-.57-3,4.4-3.54l64.87-7.35C300.09,31.7,306.17,31.82,308.69,33Z"/><path class="cls-3" d="M357.91,79.54l-6.55,42.88c-.76,5-24.7,2.61-52.19-5S249.91,99.63,251.8,95l16.34-40.18c2-5,25.65-4.57,47.92,1.6C338,62.5,358.71,74.24,357.91,79.54Z"/><path class="cls-1" d="M354.63,103.62l-1.52,8.75c-15.81-8.79-29.62-14-47.34-18.86S273.51,86,255.45,85.46l3.17-8.3c14.55-.5,36.49,4.74,49.37,8.28S342.4,95.73,354.63,103.62Z"/><path class="cls-4" d="M351,123.17c-3.15,3.92-25.86,1.44-51.84-5.71s-46.76-16.67-47.45-21.65c10.71-2.2,30.32-.31,51.86,5.62S342.93,115.79,351,123.17Z"/><path class="cls-1" d="M519,53.74a2,2,0,0,1-.3,4c-45.22-3.44-48.59,11.7-53,31.55-3.37,15.1-7.3,32.74-28.14,47.76a2,2,0,0,1-2.36-3.27c19.61-14.12,23.36-30.95,26.57-45.36C466.61,66.66,470.31,50,519,53.74Z"/><path class="cls-2" d="M510.42,40.06l-50.86,88.28c-1.35,2.34,1.15,2.58,5.46.35l58-30c4.31-2.23,9.06-5.78,10.35-8.14L581.76,1.94c1.29-2.36-1.2-2.67-5.45-.35L520.77,31.92C516.52,34.24,511.77,37.73,510.42,40.06Z"/><path class="cls-3" d="M495.51,103.51,528,136.05c3.43,3.44,21-11.7,38.61-33s29.11-41.59,25-44.22L552.89,33.86c-4.16-2.67-21.21,8.55-34.74,24.55C503,76.33,491.62,99.62,495.51,103.51Z"/><path class="cls-1" d="M516.59,124.6l6.12,6.13c5.56-19.8,11.9-30.6,23.32-45.21,10.69-13.66,20.75-23,36.75-32.43l-7.11-4.58c-14.51,9.06-28,21.62-36.07,32A125.71,125.71,0,0,0,516.59,124.6Z"/><path class="cls-4" d="M591.73,58.81c-5.12-4-23.18,10.36-40.34,32.14s-26.93,42.72-21.81,46.76,23.19-10.36,40.35-32.15S596.86,62.84,591.73,58.81Z"/><path class="cls-1" d="M438.44,133.05c-2.29-1.35-4.95-1.07-5.94.62s.06,4.14,2.35,5.49,5,1.07,5.95-.62S440.73,134.4,438.44,133.05Z"/><path class="cls-1" d="M427.47,154.57c-3.63-1.39-9.77-6.6-10.27-12.59,6.17-4.59,13.66-9.15,18.46-4.76C441.61,142.65,430.66,155.79,427.47,154.57Z"/><path class="cls-4" d="M144.64,113.89c3.17,8.8-14.8,23.33-40.13,32.46s-48.45,9.4-51.62.61L43.4,110.41c-2.95-8.17,13.75-21.67,37.29-30.16s45-8.73,47.95-.56Z"/><path class="cls-1" d="M52,143.64l-2-7.82c2.32,3.67,8.2,5.76,16.13,6.19,9.55.52,21.85-1.46,34.62-6.07s23.52-10.92,30.54-17.41c5.84-5.39,9-10.75,8.48-15l3.42,7.31a35.45,35.45,0,0,1-8.62,11.29c-7.49,6.92-18.81,13.61-32.17,18.42s-26.34,6.89-36.53,6.34A35.46,35.46,0,0,1,52,143.64Z"/><path class="cls-2" d="M1.76,118,63.69,62.07c4-3.65,13.83-6.49,21.76-6.31l75,1.7c7.93.18,11.11,3.31,7.07,7l-61.93,55.89c-4,3.65-13.84,6.48-21.77,6.3l-75-1.69C.89,124.74-2.29,121.61,1.76,118Z"/><path class="cls-1" d="M86.46,85.2a2,2,0,0,1-3.89,1.06c-9-32.8,6.64-44.43,28.06-50.32a227.65,227.65,0,0,1,23.58-4.67c12.78-2.07,25.21-4.08,33.44-8.89a2,2,0,0,1,2.75.71,2,2,0,0,1-.72,2.76c-8.88,5.2-21.68,7.27-34.84,9.4a226.5,226.5,0,0,0-23.16,4.57C92.41,45.12,78.32,55.61,86.46,85.2Z"/><path class="cls-1" d="M164.8,25.18A4.83,4.83,0,1,1,174,22.44c.85,2.85-.52,5.77-3.06,6.52A5.1,5.1,0,0,1,164.8,25.18Z"/><path class="cls-1" d="M189.15,19.15c-1-5.61-4.22-12.06-9.05-15.3,0,0-3.19,6.12-6.27,9.47-4.2,4.55-6.12,8.26-4.7,10.43C173,29.68,185.51,22.7,189.15,19.15Z"/></g></g></svg>