<svg xmlns="http://www.w3.org/2000/svg" viewBox="0 0 743.81 262.82"><defs><style>.cls-1{fill:#00021a;}.cls-1,.cls-2,.cls-3,.cls-4,.cls-5,.cls-6,.cls-7,.cls-8,.cls-9{fill-rule:evenodd;}.cls-2{fill:#e0a680;}.cls-3{fill:#ca7d4a;}.cls-4{fill:#fff;}.cls-5{fill:#1a2d4d;}.cls-6{fill:#f50f57;}.cls-7{fill:#372523;}.cls-8{fill:#a5aebe;}.cls-9{fill:#1d2c4b;}</style></defs><g id="Capa_2" data-name="Capa 2"><g id="OBJECTS"><path class="cls-1" d="M221.18,179.6c24.16-8.22,44.68-11.21,45.81-6.66s-8.44,25.17-32.61,33.4-46.41-2.4-47.54-7S197,187.83,221.18,179.6Z"/><path class="cls-2" d="M216.17,262.82c-2.36-34.6-4.63-85-2.2-130.79l36,5.1c5.24,30.13,14.39,84.08,18.69,125.69Z"/><path class="cls-2" d="M236.48,166.63c-25,4.48-33.06-24.78-33.11-44.07-1-3.49-5.56-30.06-.88-31.47,4-1.19,5.8,8.75,12,28.62-.82-16.19-5.58-40.17-.49-40.57,6.55-.52,7.55,14.73,13.92,36.73-3.38-24-5.47-41.77-.09-41.85,5.22-.08,7.69,19.87,11.57,40-.3-23,.57-35.44,3.81-35.76,5.29-.51,3.86,2.54,7.14,29.79C252.38,125.07,255.57,163.21,236.48,166.63Z"/><path class="cls-2" d="M272.76,109.65c2.93,3.28-14.26,44.83-26,52-20.17,2.85-19.22-22.43,2.31-32C258,118.22,268,104.31,272.76,109.65Z"/><path class="cls-3" d="M250.55,124.37a2.42,2.42,0,1,1,.91,4.75,26.06,26.06,0,0,0-12.79,6.61,22.08,22.08,0,0,0-6.77,11.65,2.42,2.42,0,0,1-4.75-.91,26.89,26.89,0,0,1,8.21-14.26A30.78,30.78,0,0,1,250.55,124.37Z"/><path class="cls-3" d="M247.07,113.32a2.41,2.41,0,1,1-1,4.73,50.08,50.08,0,0,0-18.06-.67A60.88,60.88,0,0,0,211.18,123a2.42,2.42,0,1,1-2.08-4.38,65.09,65.09,0,0,1,18.2-6A54.53,54.53,0,0,1,247.07,113.32Z"/><path class="cls-4" d="M210.53,164.25c16.85,2,30,0,45.5-5l9.71,65.11-54,4Z"/><path class="cls-5" d="M186.84,199.39c14.87,11,74.94-5.26,80.15-26.45a652.79,652.79,0,0,0,26.25,89.88h-102C185.65,216,186.84,199.39,186.84,199.39Z"/><path class="cls-6" d="M270.92,190.15c1.32,5.34,3,11.74,5,19-6.92,12.4-50.87,32.19-87.54,25.76-.56-6.44-.93-11.89-1.18-16.43C214,222.48,258.88,212.15,270.92,190.15Z"/><path class="cls-1" d="M406.75,167.11c22.15,8.52,32.14,16.87,30.5,21.14s-15.3,14.08-37.46,5.55S362,163.68,363.65,159.41,384.59,158.59,406.75,167.11Z"/><path class="cls-2" d="M427.31,134.58l-11-.56,6.59-33.09C432.85,103.7,430,120.52,427.31,134.58Z"/><path class="cls-2" d="M428,128.78c-.25,5-1.73,15.39-7.26,23.18-2.31,3.25-6.86,80.42-10.78,82.18-9,4-38-20.84-43.16-24.87-3.17-3.7,5.59-39.16,7.19-57.3,1.39-15.65,3.7-31.19,5.49-37.07C395.9,106.92,420.27,115.83,428,128.78Z"/><path class="cls-2" d="M376.8,118.06c1.63,6.26,10.17,4.53,10.73.78,1.14,4.88,6.73,7.92,10.71,3.4.61,5.4,8.51,7.79,11.63,3.3.58,5.11,8.21,7.67,10.49,2.72l8.72-20.16c-.64-5.73-7.14-9.16-12.23-7.78-3.65-5.43-7.35-7.38-13-3.47-2.74-7.64-11.54-7.83-14.44-1.42-5.66-4.62-11.48-2.38-12.24.9C375.35,104.11,375,111.13,376.8,118.06Z"/><path class="cls-2" d="M398.16,107.81c-5.09-.72-19.88-1.31-24.49.74-2.83,1.26-8.82,4.13-9.63,7.91-2.82,13.32,9.93,37.91,20.49,42.77,22,2.06,17.47-27.81-.91-39.62C397.63,122.23,405.3,112.82,398.16,107.81Z"/><path class="cls-3" d="M376.47,110.09a2.42,2.42,0,1,1-.4-4.83l.92-.07c5.06-.43,15.72-1.34,21.31.68a7.18,7.18,0,0,1,4,3.17,6.43,6.43,0,0,1,.84,2.9,7.5,7.5,0,0,1-.45,2.87,9.31,9.31,0,0,1-4.14,4.82A22.38,22.38,0,0,1,391,122l-.43.06a35.47,35.47,0,0,1,9.85,16,2.42,2.42,0,1,1-4.68,1.25c-2.94-11-12.67-17.15-12.69-17.17h0a2.42,2.42,0,0,1,1.27-4.45,46.34,46.34,0,0,0,6-.47,17.69,17.69,0,0,0,5.89-1.75,4.39,4.39,0,0,0,2-2.25,2.82,2.82,0,0,0,.17-1,1.75,1.75,0,0,0-.21-.74,2.51,2.51,0,0,0-1.41-1c-4.56-1.64-14.54-.79-19.28-.39Z"/><path class="cls-3" d="M386.68,99a2,2,0,0,1,4,.71s-.59,3.2-1.14,7.06a2,2,0,0,1-4-.57c.6-4.18,1.16-7.19,1.16-7.2Zm6.48,29.63a2,2,0,0,1-.87-4,7.26,7.26,0,0,0,1.57-.53,10.91,10.91,0,0,0,1.63-.94,2,2,0,0,1,2.78.42h0c1.44,1.92,2.86,3.09,4.34,3.43s3.14-.08,5.17-1.33a2,2,0,0,1,2.75.62h0a6.92,6.92,0,0,0,2.09,2.17,4,4,0,0,0,2.13.65h0a4,4,0,0,0,2.15-.67,7.39,7.39,0,0,0,2.2-2.35,59.6,59.6,0,0,0,3.45-7,80.66,80.66,0,0,0,3-8,2,2,0,0,1,3.86,1.2c-.88,2.78-2,5.74-3.17,8.4a66.18,66.18,0,0,1-3.72,7.5,11.32,11.32,0,0,1-3.45,3.61,7.92,7.92,0,0,1-4.33,1.32h0A8,8,0,0,1,410.5,132a10.06,10.06,0,0,1-2.22-1.9,9.73,9.73,0,0,1-6.57.95,10.72,10.72,0,0,1-5.5-3.51,6.77,6.77,0,0,1-.66.33A12.28,12.28,0,0,1,393.16,128.65Z"/><path class="cls-3" d="M399.07,101.67a2,2,0,1,1,3.94.82c-.09.42-.21.85-.36,1.39a47.94,47.94,0,0,0-1.18,4.84,2,2,0,0,1-4-.74c.45-2.36.93-4,1.26-5.2.15-.52.27-.93.31-1.11Zm-3.24,15.55a2,2,0,1,1,4,.68c-.28,1.65-.53,3.09-.7,4.17s-.33,2.17-.45,3a2,2,0,0,1-4-.52c.12-.9.28-2,.46-3.13C395.36,120,395.6,118.54,395.83,117.22Z"/><path class="cls-3" d="M413.13,104.75a2,2,0,0,1,3.88,1.1L410.68,128a2,2,0,1,1-3.89-1.11Z"/><path class="cls-5" d="M363.65,159.41c4,22.41,64.3,39.37,73.77,28,1.58,30.73.92,55.14-1,75.42H342.22C350.57,236.89,356.76,205.13,363.65,159.41Z"/><path class="cls-6" d="M437.94,199.44q.19,5.81.29,11.3c-13.39,3.89-30,2.15-45.15-2.72-13.41-4.31-25.9-11.14-34.18-18.72q1.11-6.62,2.24-13.68c.31.47.65.94,1,1.41,6.24,8.11,19.48,16,34.22,20.72C410.84,202.4,426.49,203.9,437.94,199.44Z"/><path class="cls-1" d="M628.31,142.88c-6.43,10.69-8.29,17.6-7,21.37,6.3,23.49,39.36,25.71,61.34-1.9,12.9-16.2,13.15-51.91,10.06-62.17-2.87-9.54-20.47-1-25.3,1.84C655,109.36,640.19,123.13,628.31,142.88Z"/><path class="cls-2" d="M639.34,99.08l38.81-9.28L724,207.57c14.65,40.42,7.25,47.72-8.55,55.25H677.05C667.86,237.83,651.81,185.57,639.34,99.08Z"/><path class="cls-2" d="M670,67.39c.68-4.5,4.42-26,8.58-39.39,2-6.45,3.75-11.39,5.66-11.21,3.77.37,4.41,4.85,3.22,12.62l-5.27,34.27C681.61,67.13,675.16,73.14,670,67.39Z"/><path class="cls-2" d="M655.85,63.05c.8-5,5.21-29.08,10.11-44,2.37-7.21,4.86-12.3,7.11-12.09,4.45.41,5.2,5.41,3.79,14.1l-6.21,38.31C670,63.2,662,69.48,655.85,63.05Z"/><path class="cls-2" d="M629.41,59.31c.2-4.41,1.67-25.57,4.45-38.92,1.35-6.45,3-11.08,5-11.12,3.87-.07,5,4.17,4.63,11.79l-1.64,33.62C641.64,58.06,635.32,64.26,629.41,59.31Z"/><path class="cls-2" d="M642.1,56.67c.63-5.05,4.23-29.24,8.62-44.34C652.85,5,655.17-.13,657.42,0c4.46.27,5.38,5.24,4.26,14l-4.91,38.49C656.28,56.34,648.46,62.89,642.1,56.67Z"/><path class="cls-2" d="M634.43,55.36c11.62-10.59,35.2-9.57,48.54,1.42,1.49,11.46,3.47,28.49-2.18,39.85-3.67,7.4-10.58,12.4-23,11.91C626.42,107.27,632.32,70.35,634.43,55.36Z"/><path class="cls-7" d="M649.51,49.33a.61.61,0,1,1-.23-1.19,46.92,46.92,0,0,1,15.5-.44,35.9,35.9,0,0,1,13.41,4.59.61.61,0,0,1-.63,1,34.52,34.52,0,0,0-12.95-4.43A45.59,45.59,0,0,0,649.51,49.33Z"/><path class="cls-5" d="M621.36,164.37s4.17,51.22,17.42,98.45h105V241c-4.37-11-9-22.41-10-25.63-12.22-39.54-27.3-71.1-41.1-115.19C692.72,133.67,635.12,176.87,621.36,164.37Z"/><path class="cls-6" d="M622.94,179.53c.47,3.93,1,8.5,1.76,13.56,35.85-.54,65-25,80.78-55.76-2.22-6-4.44-12.16-6.64-18.55C687.17,150.87,659,179.78,622.94,179.53Z"/><path class="cls-4" d="M572.21,37.58c-1.84-15.3,3.36-26.13,14.32-33.32C638.71,34,678.74,51.1,727.28,64.75c3,14.6-1.12,26-14.32,33.32A608.38,608.38,0,0,0,572.21,37.58Z"/><path class="cls-8" d="M727.28,64.75c8.15,8-3.2,36.39-14.32,33.32C705.12,91,713.5,62.91,727.28,64.75Z"/><path class="cls-9" d="M712.05,97.05c-3-4-2.63-12,0-19,3.41.64,11.51,2.39,11.49,2.54C722.46,87.27,717.77,94.17,712.05,97.05Z"/><path class="cls-8" d="M579.42,10.84a2,2,0,0,1,2.21-3.37c.21.14,73.16,48.52,137.42,58.15a2,2,0,0,1-.59,4C653.33,59.86,579.63,11,579.42,10.84Z"/><path class="cls-6" d="M636.35,30.56c9.31,4.47,24.17,10.9,33.24,14.68-12.24,2.72-12.5,9.5-14.5,22.81q-13.27-6-26.75-11.34c-5.85-16.43,8-26.15,8-26.15Z"/><path class="cls-2" d="M639.71,101.61c5.86,5.51,12.79,6.31,21.46,6.92,2.68-3.38.44-17.94-1.12-23.49-3.57-12.74-18-17.71-18-17.71,3.89-3.42,15.29-17.2,6-19.28-5-1.11-18.68,7.5-21.51,16.91C623.81,74,632.63,95,639.71,101.61Z"/><path class="cls-3" d="M659.29,78.39a2,2,0,0,1-3.43,2.13c-5-8-14.47-11.28-14.5-11.29a2,2,0,0,1-1.23-2.57,1.87,1.87,0,0,1,.48-.76c.54-.58,1.45-1.48,2.5-2.51,1.46-1.45,3.2-3.16,4.54-4.61a2,2,0,0,1,3,2.73c-1.36,1.47-3.16,3.25-4.68,4.75l-.39.39C649.15,68.4,655.37,72.12,659.29,78.39Z"/><path class="cls-1" d="M52,158.41c16.37-8.57,66.53,13.85,68.4,45.09,0,0-9,32.3-29.93,59.32H0C2.44,260.38,30.28,231.37,52,158.41Z"/><path class="cls-2" d="M76.53,114.08c2.92-4.41,14.56-15.58,24-20,12.89-6,20.64-6.73,20.25-.69,11.33-5.45,19.83-2.6,14.14,5.47,8.1-2.3,13.42,4.5,2.24,12.12,10-1.63,5.68,9.43-8.33,18.29-1.23,6.17-4.95,21.28-8.12,26.57C102.16,155.47,74.82,131.86,76.53,114.08Z"/><path class="cls-2" d="M122.21,152.69c-8.81-22.61-31.51-35.55-45.68-38.24C70.24,130,69.19,143,71.38,152.91,75.5,171.59,91.1,179.37,104.76,173,110.83,170.14,118.09,161.43,122.21,152.69Z"/><path class="cls-2" d="M70.66,148.61c-20.25,42.72-41.14,84-68.77,114.21H67.64c14.47-28.23,26.59-58.45,37.25-89.9Z"/><path class="cls-3" d="M92.16,116.58a2.42,2.42,0,1,1-4-2.74,50.43,50.43,0,0,1,4-5.15,30.91,30.91,0,0,1,5-4.45c2.75-2,6.8-4.54,11.11-7,3.91-2.25,8-4.42,11.53-6a2.42,2.42,0,1,1,2,4.41c-3.45,1.56-7.39,3.64-11.11,5.78-4.16,2.39-8.06,4.86-10.69,6.76a25.51,25.51,0,0,0-4.19,3.76A46.18,46.18,0,0,0,92.16,116.58Z"/><path class="cls-3" d="M103.28,123.62a2.42,2.42,0,1,1-4-2.69,45.12,45.12,0,0,1,4.08-5.35,36.39,36.39,0,0,1,5-4.53,128.69,128.69,0,0,1,11.6-7.67,134.77,134.77,0,0,1,12.46-6.5,2.42,2.42,0,1,1,2,4.41,129.35,129.35,0,0,0-12,6.26,121.61,121.61,0,0,0-11.13,7.37,31.12,31.12,0,0,0-4.39,3.92A40.67,40.67,0,0,0,103.28,123.62Z"/><path class="cls-3" d="M115.09,132.17a2.42,2.42,0,1,1-4.51-1.75,28.35,28.35,0,0,1,5.79-8.56,57.6,57.6,0,0,1,8.63-6.7,95.86,95.86,0,0,1,11.08-6.33,2.42,2.42,0,0,1,2.07,4.38,90.13,90.13,0,0,0-10.5,6,52.92,52.92,0,0,0-7.85,6.07A22.79,22.79,0,0,0,115.09,132.17Z"/><path class="cls-5" d="M52,158.41C51.66,176.6,93,208,120.36,203.5a200.77,200.77,0,0,1-7.26,22.75,153.43,153.43,0,0,1-9.74,20.47c-2.36,4.11-6.06,9.78-10.55,16.1H0C2.45,260.37,30.28,231.36,52,158.41Z"/><path class="cls-6" d="M117.7,213a97.35,97.35,0,0,1-4.07,11.92c-30.76,7.29-68.08-21.81-71.31-37.67,1.77-4.58,2.36-6.35,4.1-11.44C58.66,200,87.16,217.18,117.7,213Z"/><path class="cls-1" d="M546.64,172.21c-24.51-7.37-45.31-10-46.47-6s8.56,22.53,33.07,29.89,47.07-2.15,48.22-6.22S571.15,179.57,546.64,172.21Z"/><path class="cls-2" d="M552.7,262.82c3.35-35.13,8.3-89.83,5.79-137.11l-35.58,5c-5.51,31.71-15.41,90.12-19.24,132.07Z"/><path class="cls-2" d="M534.92,159.88c22.27,5.69,32.63-13.39,32.73-46.18.93-3.66,5.49-31.5.87-33-3.92-1.25-5.74,9.16-11.85,30,.81-17,5.52-42.1.48-42.52-6.47-.54-7.46,15.44-13.76,38.49,3.35-25.1,5.41-43.77.09-43.85-5.16-.08-7.59,20.82-11.43,41.92.3-24.16-.56-37.15-3.77-37.48-5.22-.53-3.81,2.66-7.06,31.22C519.2,116.33,516.31,155.13,534.92,159.88Z"/><path class="cls-2" d="M500.38,103.59c-2.89,3.24,14.09,44.31,25.75,51.41,19.93,2.81,19-22.17-2.29-31.69C515,112.06,505.1,98.31,500.38,103.59Z"/><path class="cls-4" d="M517.46,150.75c12.71,9.93,33.93,12.14,43.76,5.71V214l-54.14-14.51Z"/><path class="cls-5" d="M581.46,189.91c-15.08,9.83-76-4.71-81.29-23.67a536.43,536.43,0,0,1-33.74,96.58H574.58C583,208.56,581.46,189.91,581.46,189.91Z"/><path class="cls-6" d="M496.19,181.65c-1.33,4.77-3,10.5-5.05,17,7,11.1,51.59,28.81,88.78,23.06.56-5.77.94-10.65,1.19-14.71C554,210.57,508.4,201.33,496.19,181.65Z"/><path class="cls-3" d="M560.71,109.73a2.42,2.42,0,1,1-1.77,4.51,85.64,85.64,0,0,0-16.53-4.45A137.82,137.82,0,0,0,526.12,108a2.42,2.42,0,1,1,.24-4.83A142.72,142.72,0,0,1,543.23,105,91.07,91.07,0,0,1,560.71,109.73Z"/></g></g></svg>