<svg width="14" height="12" viewBox="0 0 14 12" fill="none" xmlns="http://www.w3.org/2000/svg">
<path d="M3.66667 7.99967V4.99967C3.66667 4.73446 3.77202 4.4801 3.95956 4.29257C4.1471 4.10503 4.40145 3.99967 4.66667 3.99967C4.93188 3.99967 5.18624 4.10503 5.37377 4.29257C5.56131 4.4801 5.66667 4.73446 5.66667 4.99967V7.99967M3.66667 6.66634H5.66667M1 2.66634C1 2.31272 1.14048 1.97358 1.39052 1.72353C1.64057 1.47348 1.97971 1.33301 2.33333 1.33301H11.6667C12.0203 1.33301 12.3594 1.47348 12.6095 1.72353C12.8595 1.97358 13 2.31272 13 2.66634V9.33301C13 9.68663 12.8595 10.0258 12.6095 10.2758C12.3594 10.5259 12.0203 10.6663 11.6667 10.6663H2.33333C1.97971 10.6663 1.64057 10.5259 1.39052 10.2758C1.14048 10.0258 1 9.68663 1 9.33301V2.66634ZM8.33333 3.99967V7.99967H9C9.35362 7.99967 9.69276 7.8592 9.94281 7.60915C10.1929 7.3591 10.3333 7.01996 10.3333 6.66634V5.33301C10.3333 4.97939 10.1929 4.64025 9.94281 4.3902C9.69276 4.14015 9.35362 3.99967 9 3.99967H8.33333Z" stroke="#007AFF" stroke-linecap="round" stroke-linejoin="round"/>
</svg>
