<svg width="13" height="13" viewBox="0 0 13 13" fill="none" xmlns="http://www.w3.org/2000/svg">
<path d="M2.66699 3.66667H2.00033C1.6467 3.66667 1.30756 3.80714 1.05752 4.05719C0.807468 4.30724 0.666992 4.64638 0.666992 5V11C0.666992 11.3536 0.807468 11.6928 1.05752 11.9428C1.30756 12.1929 1.6467 12.3333 2.00033 12.3333H8.00033C8.35395 12.3333 8.69309 12.1929 8.94313 11.9428C9.19318 11.6928 9.33366 11.3536 9.33366 11V10.3333M8.66699 2.33333L10.667 4.33333M11.5903 3.39007C11.8529 3.12751 12.0004 2.77139 12.0004 2.40007C12.0004 2.02875 11.8529 1.67264 11.5903 1.41007C11.3278 1.14751 10.9716 1 10.6003 1C10.229 1 9.87289 1.14751 9.61033 1.41007L4.00033 7.00007V9.00007H6.00033L11.5903 3.39007Z" stroke="#007AFF" stroke-linecap="round" stroke-linejoin="round"/>
</svg>
