<svg width="14" height="14" viewBox="0 0 14 14" fill="none" xmlns="http://www.w3.org/2000/svg">
<path d="M4.07406 12.8948V12.2281C4.07406 11.8745 4.21453 11.5353 4.46458 11.2853C4.71463 11.0353 5.05377 10.8948 5.40739 10.8948H8.07406C8.42768 10.8948 8.76682 11.0353 9.01687 11.2853C9.26691 11.5353 9.40739 11.8745 9.40739 12.2281V12.8948M10.0741 5.56144H11.4074C11.761 5.56144 12.1001 5.70192 12.3502 5.95197C12.6002 6.20202 12.7407 6.54115 12.7407 6.89478V7.56144M0.740723 7.56144V6.89478C0.740723 6.54115 0.881198 6.20202 1.13125 5.95197C1.3813 5.70192 1.72043 5.56144 2.07406 5.56144H3.40739M5.40739 7.56144C5.40739 7.91506 5.54787 8.2542 5.79791 8.50425C6.04796 8.7543 6.3871 8.89478 6.74072 8.89478C7.09434 8.89478 7.43348 8.7543 7.68353 8.50425C7.93358 8.2542 8.07406 7.91506 8.07406 7.56144C8.07406 7.20782 7.93358 6.86868 7.68353 6.61863C7.43348 6.36858 7.09434 6.22811 6.74072 6.22811C6.3871 6.22811 6.04796 6.36858 5.79791 6.61863C5.54787 6.86868 5.40739 7.20782 5.40739 7.56144ZM8.74072 2.22811C8.74072 2.58173 8.8812 2.92087 9.13125 3.17092C9.3813 3.42097 9.72043 3.56144 10.0741 3.56144C10.4277 3.56144 10.7668 3.42097 11.0169 3.17092C11.2669 2.92087 11.4074 2.58173 11.4074 2.22811C11.4074 1.87449 11.2669 1.53535 11.0169 1.2853C10.7668 1.03525 10.4277 0.894775 10.0741 0.894775C9.72043 0.894775 9.3813 1.03525 9.13125 1.2853C8.8812 1.53535 8.74072 1.87449 8.74072 2.22811ZM2.07406 2.22811C2.07406 2.58173 2.21453 2.92087 2.46458 3.17092C2.71463 3.42097 3.05377 3.56144 3.40739 3.56144C3.76101 3.56144 4.10015 3.42097 4.3502 3.17092C4.60025 2.92087 4.74072 2.58173 4.74072 2.22811C4.74072 1.87449 4.60025 1.53535 4.3502 1.2853C4.10015 1.03525 3.76101 0.894775 3.40739 0.894775C3.05377 0.894775 2.71463 1.03525 2.46458 1.2853C2.21453 1.53535 2.07406 1.87449 2.07406 2.22811Z" stroke="#5CE1E6" stroke-linecap="round" stroke-linejoin="round"/>
</svg>
