<svg width="22" height="15" viewBox="0 0 22 15" fill="none" xmlns="http://www.w3.org/2000/svg">
<path d="M6.55556 14H3.22222C2.63285 14 2.06762 13.8043 1.65087 13.4561C1.23413 13.1078 1 12.6354 1 12.1429V2.85714C1 2.3646 1.23413 1.89223 1.65087 1.54394C2.06762 1.19566 2.63285 1 3.22222 1H18.7778C19.3671 1 19.9324 1.19566 20.3491 1.54394C20.7659 1.89223 21 2.3646 21 2.85714V13.0714C21 13.3177 20.8829 13.5539 20.6746 13.728C20.4662 13.9022 20.1836 14 19.8889 14M9.88889 12.1429C9.88889 11.8966 10.006 11.6604 10.2143 11.4863C10.4227 11.3121 10.7053 11.2143 11 11.2143H15.4444C15.7391 11.2143 16.0217 11.3121 16.2301 11.4863C16.4385 11.6604 16.5556 11.8966 16.5556 12.1429V13.0714C16.5556 13.3177 16.4385 13.5539 16.2301 13.728C16.0217 13.9022 15.7391 14 15.4444 14H11C10.7053 14 10.4227 13.9022 10.2143 13.728C10.006 13.5539 9.88889 13.3177 9.88889 13.0714V12.1429Z" stroke="#5CE1E6" stroke-width="2" stroke-linecap="round" stroke-linejoin="round"/>
</svg>
