<svg width="26" height="20" viewBox="0 0 26 20" fill="none" xmlns="http://www.w3.org/2000/svg">
<path d="M7.66667 18.1667H3.66667C2.95942 18.1667 2.28115 17.9209 1.78105 17.4833C1.28095 17.0457 1 16.4522 1 15.8334V4.16671C1 3.54787 1.28095 2.95438 1.78105 2.51679C2.28115 2.07921 2.95942 1.83337 3.66667 1.83337H22.3333C23.0406 1.83337 23.7189 2.07921 24.219 2.51679C24.719 2.95438 25 3.54787 25 4.16671V17C25 17.3095 24.8595 17.6062 24.6095 17.825C24.3594 18.0438 24.0203 18.1667 23.6667 18.1667M11.6667 15.8334C11.6667 15.524 11.8071 15.2272 12.0572 15.0084C12.3072 14.7896 12.6464 14.6667 13 14.6667H18.3333C18.687 14.6667 19.0261 14.7896 19.2761 15.0084C19.5262 15.2272 19.6667 15.524 19.6667 15.8334V17C19.6667 17.3095 19.5262 17.6062 19.2761 17.825C19.0261 18.0438 18.687 18.1667 18.3333 18.1667H13C12.6464 18.1667 12.3072 18.0438 12.0572 17.825C11.8071 17.6062 11.6667 17.3095 11.6667 17V15.8334Z" stroke="white" stroke-width="2" stroke-linecap="round" stroke-linejoin="round"/>
</svg>
